<?xml version="1.0" encoding="UTF-8" standalone="no"?>
<!DOCTYPE svg PUBLIC "-//W3C//DTD SVG 1.1//EN" "http://www.w3.org/Graphics/SVG/1.1/DTD/svg11.dtd">
<svg version="1.1" xmlns="http://www.w3.org/2000/svg" xmlns:xlink="http://www.w3.org/1999/xlink" preserveAspectRatio="xMidYMid meet" viewBox="0 0 640 640" width="200" height="200"><defs><path d="M555.03 48.35C524.47 52.32 280.05 84.02 249.49 87.98C244.58 88.63 240.91 92.81 240.91 97.78C240.91 101.74 240.91 121.56 240.91 157.23L240.91 198.85C240.91 349.34 240.91 432.94 240.91 449.66C222.91 427.97 194.32 413.86 162.06 413.86C107.72 413.86 63.5 453.75 63.5 502.79C63.5 551.83 107.72 591.72 162.06 591.72C216.41 591.72 260.62 551.83 260.62 502.79C260.62 500.5 260.43 498.25 260.24 496C260.36 495.36 260.62 494.78 260.62 494.11C260.62 475 260.62 379.48 260.62 207.53L546.44 170.45C546.44 278.69 546.44 338.82 546.44 350.84C528.44 329.17 499.85 315.06 467.59 315.06C413.25 315.06 369.03 354.94 369.03 403.98C369.03 453.02 413.25 492.91 467.59 492.91C521.45 492.91 565.3 453.72 566.08 405.3C566.08 405.17 566.15 405.06 566.15 404.93C566.15 388.55 566.15 306.64 566.15 159.21L566.15 117.6C566.15 81.93 566.15 62.12 566.15 58.15C566.15 55.31 564.93 52.6 562.8 50.73C560.67 48.87 557.86 48.02 555.03 48.35Z" id="j1aoGMJvEz"></path><linearGradient id="gradienta5vLnbhzfT" gradientUnits="userSpaceOnUse" x1="314.83" y1="48.28" x2="314.83" y2="591.72"><stop style="stop-color: #2296e7;stop-opacity: 1" offset="0%"></stop><stop style="stop-color: #77b375;stop-opacity: 1" offset="100%"></stop></linearGradient></defs><g><g><g><g><filter id="shadow14501801" x="-42.5" y="-57.72" width="725.65" height="766.44" filterUnits="userSpaceOnUse" primitiveUnits="userSpaceOnUse"><feFlood></feFlood><feComposite in2="SourceAlpha" operator="in"></feComposite><feGaussianBlur stdDeviation="6.56"></feGaussianBlur><feOffset dx="11" dy="11" result="afterOffset"></feOffset><feFlood flood-color="#000000" flood-opacity="0.5"></feFlood><feComposite in2="afterOffset" operator="in"></feComposite><feMorphology operator="dilate" radius="4"></feMorphology><feComposite in2="SourceAlpha" operator="out"></feComposite></filter><path d="M555.03 48.35C524.47 52.32 280.05 84.02 249.49 87.98C244.58 88.63 240.91 92.81 240.91 97.78C240.91 101.74 240.91 121.56 240.91 157.23L240.91 198.85C240.91 349.34 240.91 432.94 240.91 449.66C222.91 427.97 194.32 413.86 162.06 413.86C107.72 413.86 63.5 453.75 63.5 502.79C63.5 551.83 107.72 591.72 162.06 591.72C216.41 591.72 260.62 551.83 260.62 502.79C260.62 500.5 260.43 498.25 260.24 496C260.36 495.36 260.62 494.78 260.62 494.11C260.62 475 260.62 379.48 260.62 207.53L546.44 170.45C546.44 278.69 546.44 338.82 546.44 350.84C528.44 329.17 499.85 315.06 467.59 315.06C413.25 315.06 369.03 354.94 369.03 403.98C369.03 453.02 413.25 492.91 467.59 492.91C521.45 492.91 565.3 453.72 566.08 405.3C566.08 405.17 566.15 405.06 566.15 404.93C566.15 388.55 566.15 306.64 566.15 159.21L566.15 117.6C566.15 81.93 566.15 62.12 566.15 58.15C566.15 55.31 564.93 52.6 562.8 50.73C560.67 48.87 557.86 48.02 555.03 48.35Z" id="bb7xRA7TT" fill="white" fill-opacity="1" filter="url(#shadow14501801)"></path></g><use xlink:href="#j1aoGMJvEz" opacity="1" fill="url(#gradienta5vLnbhzfT)"></use></g></g></g></svg>